<?xml version="1.0" encoding="UTF-8"?>
<svg xmlns="http://www.w3.org/2000/svg" xmlns:xlink="http://www.w3.org/1999/xlink" viewBox="0 0 100 100" width="100px" height="100px">
<g id="surface321983">
<path style=" stroke:none;fill-rule:nonzero;fill:rgb(80.000001%,80.000001%,80.000001%);fill-opacity:1;" d="M 82 4 C 74.292969 4 68 10.292969 68 18 C 68 21.6875 69.449219 25.039062 71.792969 27.542969 L 55.050781 48 L 31.839844 48 C 30.863281 41.234375 25.027344 36 18 36 C 10.292969 36 4 42.292969 4 50 C 4 57.707031 10.292969 64 18 64 C 25.027344 64 30.863281 58.765625 31.839844 52 L 55.003906 52 L 71.070312 73.28125 C 69.152344 75.675781 68 78.707031 68 82 C 68 89.707031 74.292969 96 82 96 C 89.707031 96 96 89.707031 96 82 C 96 74.292969 89.707031 68 82 68 C 79.03125 68 76.277344 68.941406 74.007812 70.53125 L 58.542969 50.050781 L 74.910156 30.042969 C 76.992188 31.277344 79.414062 32 82 32 C 89.707031 32 96 25.707031 96 18 C 96 10.292969 89.707031 4 82 4 Z M 82 8 C 87.546875 8 92 12.453125 92 18 C 92 23.546875 87.546875 28 82 28 C 76.453125 28 72 23.546875 72 18 C 72 12.453125 76.453125 8 82 8 Z M 18 40 C 23.546875 40 28 44.453125 28 50 C 28 55.546875 23.546875 60 18 60 C 12.453125 60 8 55.546875 8 50 C 8 44.453125 12.453125 40 18 40 Z M 82 72 C 87.546875 72 92 76.453125 92 82 C 92 87.546875 87.546875 92 82 92 C 76.453125 92 72 87.546875 72 82 C 72 76.453125 76.453125 72 82 72 Z M 82 72 "/>
</g>
</svg>
